<?xml version="1.0" encoding="utf-8"?>
<!-- Generator: Adobe Illustrator 17.1.0, SVG Export Plug-In . SVG Version: 6.00 Build 0)  -->
<!DOCTYPE svg PUBLIC "-//W3C//DTD SVG 1.1//EN" "http://www.w3.org/Graphics/SVG/1.1/DTD/svg11.dtd">
<svg version="1.1" id="Layer_1" xmlns="http://www.w3.org/2000/svg" xmlns:xlink="http://www.w3.org/1999/xlink" x="0px" y="0px"
	 viewBox="0 0 100 100" enable-background="new 0 0 100 100" xml:space="preserve">
<g>
	<g>
		<g>
			<g>
				<g>
					<g>
						<g>
							<path d="M61.2,43h-2.1v-2.8H43.2V43h-2.1v-5.1h20.1L61.2,43L61.2,43z"/>
						</g>
					</g>
				</g>
			</g>
		</g>
	</g>
	<g>
		<path d="M76.9,44.4H25.4c-1.9,0-3.5,1.6-3.5,3.5v28.6c0,1.9,1.6,3.5,3.5,3.5h51.5c1.9,0,3.5-1.6,3.5-3.5V48
			C80.4,46,78.8,44.4,76.9,44.4z M78.5,67.7c-0.5,1.1-1.8,2.4-3.3,2.4H27.1c-1.5,0-2.8-1.3-3.3-2.4c0.9,0.6,2.1,1,3.2,1h48.3
			C76.4,68.7,77.6,68.3,78.5,67.7z M56.8,65.8H45.5v-3.2h11.3V65.8z"/>
	</g>
</g>
</svg>
