<?xml version="1.0" encoding="utf-8"?>
<!-- Generator: Adobe Illustrator 17.1.0, SVG Export Plug-In . SVG Version: 6.00 Build 0)  -->
<!DOCTYPE svg PUBLIC "-//W3C//DTD SVG 1.1//EN" "http://www.w3.org/Graphics/SVG/1.1/DTD/svg11.dtd">
<svg version="1.1" id="Layer_1" xmlns="http://www.w3.org/2000/svg" xmlns:xlink="http://www.w3.org/1999/xlink" x="0px" y="0px"
	 viewBox="0 0 100 100" enable-background="new 0 0 100 100" xml:space="preserve">
<g>
	<path fill="none" d="M59,62C59,62,59,62,59,62C59,62,59,62,59,62c0,0.2-0.1,0.4-0.1,0.6C58.9,62.4,58.9,62.2,59,62z"/>
	<path fill="none" d="M23.6,58.2c0.5,3.2,2.5,5.6,4.8,5.6c2.5,0,4.6-2.8,4.9-6.4c0-0.2,0.1-1,0.1-1.2l-0.1,0.1L32.6,57
		c0-0.1,0-0.3-0.1-0.4c-0.1-1.1-1.2-2.8-1.2-2.8c-2.6,1.9-6.5,0-6.5,0c-1.2,0.5-0.6,3.8-0.6,3.8c-0.3-0.2-0.6-0.3-0.8-0.4
		C23.5,57.5,23.5,57.9,23.6,58.2z"/>
	<path fill="none" d="M44.3,52.3c0.8,5,3.8,8.6,7.4,8.6c3.9,0,7.1-4.3,7.5-9.9c0.1-0.4,0.1-1.5,0.1-1.9l-0.1,0.1l-1,1.1
		c0-0.2-0.1-0.4-0.1-0.7c-0.2-1.7-1.8-4.4-1.8-4.4c-4,2.9-10,0-10,0c-1.8,0.7-1,5.8-1,5.8c-0.5-0.3-0.9-0.5-1.2-0.6
		C44.2,51.2,44.2,51.8,44.3,52.3z"/>
	<path fill="none" d="M78.3,65.8l0.7-1.4c-0.9,0.9-2.1,1.4-3.3,1.4c-1.2,0-2.4-0.6-3.3-1.5l1,2.2c-0.2-0.4-1.1-0.6-2.2-0.7
		c0.4,0.8,1.4,1.4,2.7,1.7l1.8,2.9l1.8-2.9c1.6-0.4,2.7-1.2,2.9-2.2C79.4,65.4,78.5,65.5,78.3,65.8z"/>
	<path fill="none" d="M80.6,57.4l-1.8-0.2c1-0.6,0.5-1.8,0.2-2.2c-0.1-0.1-0.1-0.2-0.1-0.2c0,0,0,0,0,0c-2.7,2-5,2.7-5,2.7
		c-1.2,0.5-3.3,0.8-3.3,0.8c0.3,3.7,2.5,6.6,5.1,6.6c1.7,0,3.3-1.2,4.2-3.1c0.5-1,0.9-2.3,1-3.6c0-0.2,0.1-0.5,0.1-0.7L80.6,57.4
		L80.6,57.4L80.6,57.4z"/>
	<path d="M82,64.8c1.3,0.1,2.5,0.4,2.5,0.4c-2.7-1.5-2.6-6.7-2.6-6.7c0.5-10.2-6.2-9.6-6.2-9.6l0,0l0,0c0,0-6.7-0.5-6.2,9.6
		c0,0,0.1,5.2-2.6,6.7c0,0,0.7,0,1.7-0.1c-0.6,0.3-1.2,0.6-1.7,1C65.2,64,62.8,62.5,60,62c-0.4-0.1-0.7-0.1-1.1-0.1h0c0,0,0,0,0,0
		c0,0,0,0.1,0,0.1c0,0,0,0,0,0c0,0,0,0,0,0c0,0.2-0.1,0.4-0.1,0.6c0.1-0.2,0.1-0.4,0.1-0.6c0,0.3-0.2,0.6-0.4,1
		c-1,2.1-3.7,5.8-5.4,8l-0.3-4.6c0.4-0.2,0.8-0.6,1.1-1c0.2-0.3,0.3-0.7,0.3-1.1c0,0-1.2,0.5-2.4,0.5c-1.2,0-2.4-0.5-2.4-0.5
		c0,0.4,0.1,0.7,0.3,1.1c0.3,0.5,0.7,0.9,1.1,1.1l-0.3,4.7c-1.6-2.3-4.3-6.2-5.1-8.3v0c-0.1-0.3-0.2-0.6-0.2-0.8c0,0,0,0,0,0
		c0,0,0-0.1,0-0.1c0,0,0,0,0,0c0,0,0,0,0,0c0,0,0,0,0,0c-0.2,0-0.3,0-0.5,0.1c0,0,0,0,0,0c-2.8,0.4-5.2,1.8-7,3.8
		c-1-0.9-2.3-1.6-3.7-1.9c-0.2,0-0.5-0.1-0.7-0.1h0c0,0,0,0,0,0c0,0,0,0.1,0,0.1c0,0,0,0,0,0c0,0,0,0,0,0c0,0.2-0.1,0.4-0.2,0.7
		c-0.7,1.4-2.5,4-3.7,5.5L29,66.9c0.3-0.2,0.6-0.4,0.7-0.7c0.1-0.2,0.2-0.5,0.2-0.8c0,0-0.8,0.4-1.6,0.4s-1.6-0.4-1.6-0.4
		c0,0.2,0.1,0.5,0.2,0.7c0.2,0.3,0.4,0.6,0.8,0.7l-0.2,3.2c-1.1-1.5-2.9-4.3-3.5-5.7v0c-0.1-0.2-0.1-0.4-0.2-0.5c0,0,0-0.1,0-0.1
		c0,0,0,0,0,0c0,0,0,0,0,0c-0.1,0-0.2,0-0.3,0c0,0,0,0,0,0c-3.8,0.5-6.7,3.8-6.7,7.7c0,4.3,3.5,4.3,7.8,4.3h8c1,0,1.9,0,2.8-0.1
		c1.3,3.7,5.7,3.7,11,3.7h11.7c5.2,0,9.6,0,10.9-3.6c0.9,0,1.8,0,2.8,0h8c4.3,0,7.8,0.8,7.8-3.5C87.4,68.8,85.2,65.8,82,64.8z
		 M77.5,67.5l-1.8,2.9l-1.8-2.9c-1.3-0.3-2.3-0.9-2.7-1.7c1.1,0.1,1.9,0.3,2.2,0.7l-1-2.2c0.9,0.9,2.1,1.5,3.3,1.5
		c1.2,0,2.3-0.5,3.3-1.4l-0.7,1.4c0.2-0.4,1.1-0.5,2.1-0.5C80.3,66.4,79.1,67.2,77.5,67.5z M80.9,58.2c-0.1,1.3-0.4,2.6-1,3.6
		c-0.9,1.9-2.5,3.1-4.2,3.1c-2.6,0-4.8-2.9-5.1-6.6c0,0,2.1-0.3,3.3-0.8c0,0,2.2-0.8,5-2.7c0,0,0,0,0,0c0,0,0,0.1,0.1,0.2
		c0.2,0.4,0.7,1.6-0.2,2.2l1.8,0.2h0l0.3,0.1C80.9,57.7,80.9,58,80.9,58.2z"/>
	<path d="M43.1,50.8c0,0.1,0,0.2,0,0.2c0.5,6.2,4.2,11,8.6,11c4.5,0,8.1-4.9,8.6-11.2c0.1-0.5,0.1-0.9,0.1-1.4c0-0.5,0-0.9-0.1-1.4
		c-0.6-4.4-4.2-7.8-8.6-7.8c-4.4,0-8,3.4-8.6,7.8C43,48.5,43,48.9,43,49.4c0,0.2,0,0.4,0,0.6C43,50.3,43,50.5,43.1,50.8z M46.3,45.4
		c0,0,6,2.9,10,0c0,0,1.6,2.6,1.8,4.4c0.1,0.2,0.1,0.5,0.1,0.7l1-1.1l0.1-0.1c0,0.4,0,1.5-0.1,1.9c-0.4,5.5-3.6,9.9-7.5,9.9
		c-3.6,0-6.6-3.7-7.4-8.6c-0.1-0.5-0.2-1.1-0.2-1.6c0.3,0.1,0.8,0.2,1.2,0.6C45.3,51.2,44.4,46.1,46.3,45.4z"/>
	<path d="M22.8,57.3c0,0.1,0,0.1,0,0.2c0.4,4,2.7,7.1,5.6,7.1c2.9,0,5.3-3.2,5.6-7.3c0-0.3,0.1-0.6,0.1-0.9c0-0.3,0-0.6-0.1-0.9
		c-0.4-2.9-2.8-5-5.6-5s-5.2,2.2-5.6,5c0,0.3-0.1,0.6-0.1,0.9c0,0.1,0,0.2,0,0.4C22.7,56.9,22.7,57.1,22.8,57.3z M24.8,53.7
		c0,0,3.9,1.9,6.5,0c0,0,1.1,1.7,1.2,2.8c0,0.2,0.1,0.3,0.1,0.4l0.6-0.7l0.1-0.1c0,0.2,0,1-0.1,1.2c-0.3,3.6-2.4,6.4-4.9,6.4
		c-2.4,0-4.3-2.4-4.8-5.6c-0.1-0.3-0.1-0.7-0.2-1.1c0.2,0.1,0.5,0.2,0.8,0.4C24.2,57.5,23.6,54.2,24.8,53.7z"/>
</g>
</svg>
