<?xml version="1.0" encoding="utf-8"?>
<!-- Generator: Adobe Illustrator 17.1.0, SVG Export Plug-In . SVG Version: 6.00 Build 0)  -->
<!DOCTYPE svg PUBLIC "-//W3C//DTD SVG 1.1//EN" "http://www.w3.org/Graphics/SVG/1.1/DTD/svg11.dtd">
<svg version="1.1" id="Layer_1" xmlns="http://www.w3.org/2000/svg" xmlns:xlink="http://www.w3.org/1999/xlink" x="0px" y="0px"
	 viewBox="0 0 100 100" enable-background="new 0 0 100 100" xml:space="preserve">
<path d="M84.4,73.9c5.1,0,10.4,4,11.8,8.9l2,7.1c1.4,4.9-1.7,8.9-6.8,8.9l-83.1,0c-5.1,0-8.2-4-6.9-9l1.9-7c1.3-4.9,6.6-9,11.7-9
	H84.4z"/>
<path d="M92.5,1.1H7.2C5.1,1.1,3.4,2.9,3.4,5v59.4c0,2.1,1.8,3.9,3.9,3.9h85.3c2.2,0,3.9-1.8,3.9-3.9V5C96.4,2.9,94.6,1.1,92.5,1.1z
	 M88.6,60.5H11.1V8.9h77.5C88.6,8.9,88.6,60.5,88.6,60.5z"/>
</svg>
