<?xml version="1.0" encoding="utf-8"?>
<!-- Generator: Adobe Illustrator 17.1.0, SVG Export Plug-In . SVG Version: 6.00 Build 0)  -->
<!DOCTYPE svg PUBLIC "-//W3C//DTD SVG 1.1//EN" "http://www.w3.org/Graphics/SVG/1.1/DTD/svg11.dtd">
<svg version="1.1" id="Layer_1" xmlns="http://www.w3.org/2000/svg" xmlns:xlink="http://www.w3.org/1999/xlink" x="0px" y="0px"
	 viewBox="0 0 100 100" enable-background="new 0 0 100 100" xml:space="preserve">
<g>
	<circle cx="23.5" cy="36.4" r="10.6"/>
	<path d="M93.4,21.8c-12.2-6.8-24.4,8.9-36.6,4l0.6-2.3c0.2-0.7-0.3-1.4-1-1.6c-0.7-0.2-1.5,0.3-1.6,1l-8.7,35.3c-0.1,0-0.1,0-0.2,0
		l-10.2,3.6l-6.9-12.2c-0.4-0.7-1.1-1-1.9-0.9h-8.1c-0.5-0.1-1.1,0.1-1.5,0.5L4.8,60.1c-0.7,0.6-0.8,1.6-0.4,2.4L12,74.7
		c0.2,0.3,0.4,0.5,0.7,0.6l-5,7.8c-0.3,0.5-0.4,1-0.2,1.5l2.3,7.9l-1.5,2.9c-0.5,0.9-0.1,2.1,0.8,2.5c0.3,0.1,0.6,0.2,0.8,0.2
		c0.7,0,1.4-0.4,1.7-1l1.8-3.6c0.2-0.4,0.3-0.9,0.1-1.4l-2.3-7.8l5.3-8.2l9.5,0.6L27.2,97c0.1,1,0.9,1.8,1.9,1.8c0,0,0.1,0,0.1,0
		c1-0.1,1.8-0.9,1.8-2l-1.2-21L29.3,58l3.9,6.9c0.4,0.8,1.4,1.2,2.3,0.9l9.6-3.3l-8.6,34.9c-0.2,0.7,0.3,1.4,1,1.6
		c0.1,0,0.2,0,0.3,0c0.6,0,1.2-0.4,1.3-1l9.2-37.2c0.1-0.3,0.2-0.5,0.2-0.8l2.9-11.9c15.8,9.8,31.5-8.3,47.3,3.2
		C96.9,41.5,95.2,31.7,93.4,21.8z M8.5,61.9l7.8-6.9l-2.4,15.5L8.5,61.9z"/>
</g>
</svg>
