<?xml version="1.0" encoding="utf-8"?>
<!-- Generator: Adobe Illustrator 17.1.0, SVG Export Plug-In . SVG Version: 6.00 Build 0)  -->
<!DOCTYPE svg PUBLIC "-//W3C//DTD SVG 1.1//EN" "http://www.w3.org/Graphics/SVG/1.1/DTD/svg11.dtd">
<svg version="1.1" id="Layer_1" xmlns="http://www.w3.org/2000/svg" xmlns:xlink="http://www.w3.org/1999/xlink" x="0px" y="0px"
	 viewBox="0 0 100 100" enable-background="new 0 0 100 100" xml:space="preserve">
<g id="XMLID_65_">
	<g>
		<g>
			<g id="XMLID_85_">
				<g>
					<path d="M99,55c0,0,0,0.1,0,0.1l0,0V55z"/>
					<path d="M90.5,25.9C90.5,25.9,90.5,25.9,90.5,25.9L90.5,25.9L90.5,25.9z"/>
					<path d="M80.7,63.2c-0.1-2,1.5-3.4,3.4-4.3c0.1,0,0.2-0.1,0.2-0.1c1.8,2.4,0.3,6.2-2.7,7C81.6,65.8,80.8,63.9,80.7,63.2z"/>
					<path d="M75.4,72.6c-1.9-1-4.4-5-4.7-7.2c-0.1-0.9,0.2-2.3,1.3-3.2c3.8-3,5.8,0.4,6.6,2c0,0,2,3.6,2,5
						C80.6,71.3,77.5,73.7,75.4,72.6z"/>
					<path d="M68,63.3c-0.1,0.5-0.2,0.9-0.4,1.3C67.7,64.2,67.8,63.7,68,63.3z"/>
					<path d="M67.6,64.7c-0.3,0-0.7-0.1-1.2-0.2C67.1,64.5,67.5,64.6,67.6,64.7z"/>
					<path d="M66.8,41.9C63.9,49,50.5,34.6,47,36.2c-2.4,1.2-21,17.5-23,19.1c-9.6,8.1-8.3,11.3-8.8,11.4c0.1,0-2.5,0.7-9.2-1.3
						c-1.7-0.5-3.3-1-4.7-1.2c0.7-2.4,1.6-4.8,2.6-7.2c2.9-7.2,5.9-15.6,9.2-23.1c0.8,0.3,1.6,0.7,2.4,1.2c5.8,2.8,13.1,6.4,18.7,0
						c3.2-3.6,9.3-8.5,14.3-9.1C52.7,25.4,68.7,39,66.8,41.9z"/>
					<path d="M63.8,68.1c1.6-1.4,3.2-1.3,4.2-0.9c2.8,1.2,5.4,6.1,5.4,6.1c0.7,3.5-2.8,6.1-5.9,4.8c-1.4-0.6-3.7-3.1-4.4-4.5
						C62.5,72.4,62.4,69.2,63.8,68.1z"/>
					<path d="M66.2,80.4c1,2.7-3.1,5.5-7.3,3.8c0,0,0,0,0,0c-0.1,0-0.1-0.2-0.2-0.4c-0.2-0.5-1-1.5-1-2.3c-0.7-2.1,0.6-3.8,1.7-4.7
						C61.2,74.7,65.5,78.8,66.2,80.4z"/>
					<path d="M57.1,74.8c-1.9,1.7-1.8,2.7-1.8,4.8c0,0.4,0.4,2,0.4,2.4c-8.6,5.3-8.5-2-8.3-2.1c9.6-9.2,11.2-14.5,11.2-14.5
						c-0.8,0.3-9.6,10.7-13.5,12.7c-3.8,2-5.7,1.5-7.1,0.7c-0.6-0.4-1-1.2-1.1-2.3c6.3-2.2,16.5-14.7,16.6-16.7
						c0,0-12.1,13.2-18.3,14.8c-1.1,0.4-2,0.5-2.9,0.5c-1.5,0-2.6-0.3-3.1-1c-0.7-0.9-0.8-2.4-0.4-4.5c8.3-5,17.8-15,16.7-15.7
						l-9,7.5c-4.2,3.1-12.7,8.6-12.9,8.3c-1.4,0.5-2.4,0.3-4-0.8c-0.5-0.3-0.8-0.7-0.9-1.1c-3.9-4.2,11.5-12.2,29-29
						c2.9,1,10.1,7.9,16.1,7.7c2.5-0.1,6.6-2.4,6.6-4.8c0-3.5-8.2-10.7-12.1-13.7c3-0.2,9.6,0.7,13.2,1c2.8,0.2,5.5,0.4,8.2,0.4
						c4.1,0,7.3-0.7,10.5-2.5c2.8,6.6,7.5,27.1,6.8,27.1c-4.4-0.1-10.5-0.2-14.6,1.9c-2,1-3.5,2.5-4.2,4.3c-2.7-2.4-5.8-2.7-8.3-0.9
						c-1.1,0.8-1.5,2.6-1.8,4c-0.2,0.5-0.4,0.9-0.4,1.3v0c0,0,0,0.1,0,0.1c-0.1-0.1-0.6-0.2-1.2-0.2c0,0,0,0,0,0c0,0,0,0,0,0
						c-1.3-0.2-3.2-0.4-4.7,0.7c-1.9,1.5-1.8,3.9-1.1,6c0.1,0.7,0.2,1.4,0.4,2.1C60.3,73.6,57.7,74.3,57.1,74.8z"/>
				</g>
			</g>
		</g>
	</g>
</g>
</svg>
