<?xml version="1.0" encoding="utf-8"?>
<!-- Generator: Adobe Illustrator 17.1.0, SVG Export Plug-In . SVG Version: 6.00 Build 0)  -->
<!DOCTYPE svg PUBLIC "-//W3C//DTD SVG 1.1//EN" "http://www.w3.org/Graphics/SVG/1.1/DTD/svg11.dtd">
<svg version="1.1" id="Layer_1" xmlns="http://www.w3.org/2000/svg" xmlns:xlink="http://www.w3.org/1999/xlink" x="0px" y="0px"
	 viewBox="0 0 100 100" enable-background="new 0 0 100 100" xml:space="preserve">
<path d="M55.9,31.3c0.3-0.6,0.6-1,0.9-1.4c0.1-0.1,0.2-0.3,0.3-0.4c-0.9-0.3-1.9-0.5-2.9-0.7c-0.1,0-0.3,0-0.4-0.1
	c-0.2,0-0.4,0-0.6-0.1C54.1,29.3,55,30.2,55.9,31.3z M60.9,69c0.4-1.6,0.7-3.3,1-5c0.2-1.9,0.4-4,0.4-6c-2,0.1-4.1,0-6.3-0.3
	c-3-0.4-5.9-1.1-8.8-2.1c-1.3,3.8-2.5,7.4-3.5,10.8c3.3,1.1,6.7,1.9,10,2.4C56.1,69,58.6,69.1,60.9,69z M29.1,37.8
	c-0.2,0.2-0.3,0.3-0.4,0.5c-2.4,3-4,6.5-4.9,10.2c0,1.8,0.7,3.7,1.9,5.6c1.2-3.2,3.1-6.3,5.5-9.2C29.5,42.5,28.7,40.1,29.1,37.8z
	 M61.2,31.8c0.4,0,0.8,0.1,1.1,0.2c-0.8-0.6-1.8-1.1-2.8-1.6c-0.2-0.1-0.4-0.2-0.6-0.2c-0.4,0.2-0.9,0.8-1.5,1.5
	C58.7,31.6,60,31.6,61.2,31.8z M59.2,33c2.3,1.1,4.4,2.4,6.4,4c0.1-0.8-0.2-1.8-0.9-2.8c-1.3-0.5-2.8-0.9-4.4-1.1
	C60,33.1,59.6,33.1,59.2,33z M53.6,30.9c-1.2-1-2.5-1.8-3.7-2.2c-1.3,0.2-2.4,0.5-3.2,1c0.7,0,1.5,0.1,2.2,0.2
	C50.4,30.1,52,30.4,53.6,30.9z M59.7,78c4-1.6,7.4-4.2,10.1-7.5c-2,1-4.4,1.6-7.2,2C61.9,74.6,60.9,76.5,59.7,78z M52.9,32.1
	c-1.2-0.3-2.3-0.5-3.5-0.7c-1.4-0.2-2.7-0.3-4.1-0.2c-0.3,0.9-0.1,1.9,0.6,2.9C48.3,33.2,50.6,32.5,52.9,32.1z M24.1,61.1
	c0-0.5,0.1-0.9,0.1-1.4c0.1-0.5,0.2-1,0.3-1.6c-0.5-0.7-0.9-1.4-1.3-2.1C23.4,57.8,23.7,59.5,24.1,61.1z M44.8,28.7
	c-2,0.3-4,0.9-5.8,1.7c1.5-0.4,3.1-0.6,4.8-0.7C44,29.3,44.4,29,44.8,28.7z M64.8,54.7c4-0.5,7-2,8.6-4c-1.4-3.8-3.7-7.5-6.7-10.6
	c-1,1-2.5,1.7-4.5,2C63.5,46,64.4,50.4,64.8,54.7z M74.2,53.7c-2,2-5.2,3.4-9.3,4c0.1,2.4-0.1,4.7-0.4,6.9c-0.2,1.4-0.4,2.8-0.7,4.1
	c4.4-0.6,7.8-2.1,9.8-4.3c0.4-0.8,0.7-1.7,0.9-2.6l0,0c0-0.1,0-0.2,0.1-0.4C74.9,58.9,74.8,56.3,74.2,53.7z M53.5,39.2
	c1.2,0.4,2.4,0.7,3.6,0.8c0.8,0.1,1.5,0.1,2.3,0.1c-0.9-2.5-2-4.7-3.3-6.5C55.3,35.1,54.4,37,53.5,39.2z M56.4,54.6
	c2,0.3,4,0.3,5.9,0.3c-0.2-4.4-0.9-8.7-2.1-12.5c-1,0-2.1,0-3.1-0.2c-1.5-0.2-2.9-0.5-4.4-1c-1.4,3.4-3,7.4-4.5,11.5
	C50.8,53.6,53.6,54.3,56.4,54.6z M26.4,60.4c0,0.2-0.1,0.4-0.1,0.6c-0.3,2-0.2,3.9,0.2,5.7c0.4,0.8,0.9,1.5,1.4,2.2
	c0.4,0.5,0.8,1,1.2,1.5c2.4,2.9,5.5,5.3,8.9,6.9c0-0.4,0.1-0.7,0.1-1.2l0-0.1l0,0l0-0.2l0-0.2c0.2-1.9,0.8-4.2,1.5-6.9
	C34.3,66.8,29.6,63.7,26.4,60.4z M32.8,46.9c-2.4,3-4.2,6.2-5.3,9.5c3.1,3.4,7.8,6.6,13.4,8.8c1-3.4,2.3-7,3.7-10.7
	C39.7,52.6,35.6,49.9,32.8,46.9z M74.4,48.4c0.1-0.5,0.2-1.1,0.1-1.6c-1.2-3.9-3.4-7.6-6.3-10.6c-0.2-0.2-0.4-0.3-0.7-0.5
	c0.3,1,0.3,2,0,3C70.5,41.5,72.9,44.8,74.4,48.4z M34.7,44.6c2.5,2.8,6.4,5.3,10.9,7.2c1.6-4,3.4-7.9,5-11.3c-2.3-1-4.4-2.3-5.8-3.8
	C41.2,38.7,37.7,41.4,34.7,44.6z M51.7,38.5c1.1-2,2.1-3.8,3-5.3c-2.5,0.4-5,1.2-7.6,2.4C48.3,36.7,49.8,37.7,51.7,38.5z M64.8,38.5
	c-2.1-1.8-4.3-3.3-6.8-4.5c1.2,1.7,2.3,3.8,3.2,6C62.8,39.7,64.1,39.2,64.8,38.5z M52.7,72.4c-3.4-0.4-6.8-1.2-10.2-2.4
	c-0.8,2.7-1.3,5-1.6,6.7c0,0.1,0,0.2-0.1,0.3l0,0l0,0c-0.1,0.4-0.1,0.8-0.2,1.1c0,0.1,0,0.2,0,0.3c1.8,0.6,3.6,1.1,5.5,1.3
	c3.2,0.4,6.3,0.2,9.4-0.5c0,0,0.1-0.1,0.1-0.1c0.1-0.1,0.2-0.2,0.3-0.3c0,0,0,0,0.1-0.1l0,0c1.4-1.5,2.7-3.6,3.7-6.2
	C57.5,72.8,55.1,72.7,52.7,72.4z M43.7,35.2c-0.8-1.3-1.1-2.6-0.8-3.8c-4,0.4-7.7,1.8-10.8,3.9c-1.1,2.2-0.7,4.8,1.1,7.5
	C36.3,39.7,39.9,37.1,43.7,35.2z"/>
</svg>
