<?xml version="1.0" encoding="utf-8"?>
<!-- Generator: Adobe Illustrator 17.1.0, SVG Export Plug-In . SVG Version: 6.00 Build 0)  -->
<!DOCTYPE svg PUBLIC "-//W3C//DTD SVG 1.1//EN" "http://www.w3.org/Graphics/SVG/1.1/DTD/svg11.dtd">
<svg version="1.1" id="call-layer" xmlns="http://www.w3.org/2000/svg" xmlns:xlink="http://www.w3.org/1999/xlink" x="0px" y="0px"
	 viewBox="0 0 100 100" enable-background="new 0 0 100 100" xml:space="preserve">
<path fill="#1D1D1B" d="M95.7,76.3c0-10.6-8.6-19.2-19.2-19.2c-8.6,0-16,5.7-18.4,13.6c-3.6-1-10.2-4.9-17.5-12.2
	c-0.9-0.9-1.7-1.8-2.5-2.7c-0.1-0.1-0.3-0.3-0.4-0.4c-0.7-0.8-1.5-1.7-2.1-2.5c-0.1-0.1-0.2-0.2-0.3-0.3c-1.3-1.7-2.5-3.2-3.4-4.7
	c0-0.1-0.1-0.2-0.2-0.2c-0.5-0.7-0.9-1.4-1.2-2.1c0,0,0-0.1-0.1-0.1c-0.7-1.3-1.3-2.5-1.6-3.5c0,0,0-0.1,0-0.1
	c-0.1-0.4-0.2-0.7-0.3-1C36.3,38.5,42,31.2,42,22.5C42,12,33.4,3.4,22.8,3.4c-0.6,0-7,1.3-8.5,2c-2.5,1-5.1,2.3-6.6,3.7
	c-0.5,0.5-0.9,1-1.3,1.5c-0.1,0.2-0.2,0.3-0.3,0.5c-0.3,0.4-0.5,0.8-0.7,1.2c-0.1,0.2-0.2,0.4-0.3,0.6c-0.3,0.5-0.5,1.1-0.7,1.7
	c-0.1,0.3-0.2,0.7-0.3,1C4,15.8,4,16.1,3.9,16.4c-0.1,0.4-0.1,0.8-0.2,1.3c0,0.2,0,0.3-0.1,0.5c-0.2,1.5-0.2,3.2,0,4.9
	c0.1,1.8,0.3,3.6,0.9,5.3c1.9,7.9,6.5,17.2,13.4,26.9c4.2,5.8,7.5,10,11.6,14.1c3.9,4.1,9.8,8.6,14.4,11.9
	C54.7,89,64.4,93.5,72.4,95c0.5,0.1,1,0.2,1.5,0.2c7,1,12.5-0.3,16-3.8c2.9-2.9,4.3-7.4,5.3-10.7C95.7,79.8,95.7,76.7,95.7,76.3z"/>
</svg>
