<?xml version="1.0" encoding="utf-8"?>
<!-- Generator: Adobe Illustrator 17.1.0, SVG Export Plug-In . SVG Version: 6.00 Build 0)  -->
<!DOCTYPE svg PUBLIC "-//W3C//DTD SVG 1.1//EN" "http://www.w3.org/Graphics/SVG/1.1/DTD/svg11.dtd">
<svg version="1.1" id="Layer_1" xmlns="http://www.w3.org/2000/svg" xmlns:xlink="http://www.w3.org/1999/xlink" x="0px" y="0px"
	 viewBox="0 0 100 100" enable-background="new 0 0 100 100" xml:space="preserve">
<g>
	<g>
		<circle cx="50.1" cy="30.2" r="14"/>
		<path d="M51.9,47c-1.4,0-2.8,0-4.4,0v3.4v45.3v3h4.9v-3V47"/>
		<path d="M57.3,47v51.7h4.9V47.1C61.8,47,61.4,47,61,47C61,47,59.6,47,57.3,47z"/>
		<path d="M37.8,47.1v51.6h4.9V47c-1.2,0-2.4,0-3.7,0C38.6,47,38.2,47,37.8,47.1z"/>
		<path d="M5.5,13.8c-0.4,0.1-0.7,0.4-0.7,0.9v30.1c0,0.3,0.1,0.5,0.3,0.7l23,19.1v34.1H33V50.9v-2.1v0c0,0,0,0,0,0
			c0,0-0.1-0.1-0.1-0.1L17.1,37.2V14.7c0-0.4-0.3-0.8-0.7-0.9 M14.4,13.8h-7"/>
		<path d="M83.6,13.9c-0.4,0.1-0.7,0.5-0.7,0.9v22.5L67.2,48.7c0,0-0.1,0.1-0.1,0.1c0,0,0,0,0,0v49.9h4.9V64.6l23-19.1
			c0.2-0.2,0.3-0.4,0.3-0.7V14.7c0-0.5-0.3-0.8-0.8-0.9 M92.5,13.8h-7"/>
	</g>
	<path d="M15.9,11.8c0.6,0,1.2-0.5,1.2-1.2V7.7c0-0.6-0.5-1.2-1.2-1.2h-1.2c-0.6,0-1.2-0.5-1.2-1.2V2.3c0-0.6-0.5-1.2-1.2-1.2H5.9
		c-0.6,0-1.2,0.5-1.2,1.2v8.3c0,0.6,0.5,1.2,1.2,1.2H15.9z"/>
	<path d="M84.2,11.8c-0.6,0-1.2-0.5-1.2-1.2V7.7c0-0.6,0.5-1.2,1.2-1.2h1.2c0.6,0,1.2-0.5,1.2-1.2V2.3c0-0.6,0.5-1.2,1.2-1.2h6.4
		c0.6,0,1.2,0.5,1.2,1.2v8.3c0,0.6-0.5,1.2-1.2,1.2H84.2z"/>
</g>
</svg>
