<?xml version="1.0" encoding="utf-8"?>
<!-- Generator: Adobe Illustrator 17.1.0, SVG Export Plug-In . SVG Version: 6.00 Build 0)  -->
<!DOCTYPE svg PUBLIC "-//W3C//DTD SVG 1.1//EN" "http://www.w3.org/Graphics/SVG/1.1/DTD/svg11.dtd">
<svg version="1.1" id="Layer_1" xmlns="http://www.w3.org/2000/svg" xmlns:xlink="http://www.w3.org/1999/xlink" x="0px" y="0px"
	 viewBox="0 0 100 100" enable-background="new 0 0 100 100" xml:space="preserve">
<g>
	<path fill="none" d="M23.8,68.4h-2.9c-0.1,0-0.3,0.1-0.3,0.3V69c0,0.1,0.1,0.3,0.3,0.3h2.9c0.1,0,0.3-0.1,0.3-0.3v-0.3
		C24,68.5,23.9,68.4,23.8,68.4z"/>
	<path fill="none" d="M23.8,66.9h-2.9c-0.1,0-0.3,0.1-0.3,0.3v0.3c0,0.1,0.1,0.3,0.3,0.3h2.9c0.1,0,0.3-0.1,0.3-0.3v-0.3
		C24,67,23.9,66.9,23.8,66.9z"/>
	<path fill="none" d="M86.1,76c-0.8,0-1.5,0.7-1.5,1.5s0.7,1.5,1.5,1.5c0.8,0,1.5-0.7,1.5-1.5C87.7,76.6,87,76,86.1,76z M86.1,78.2
		c-0.4,0-0.8-0.3-0.8-0.8c0-0.4,0.3-0.8,0.8-0.8c0.4,0,0.8,0.3,0.8,0.8S86.6,78.2,86.1,78.2z"/>
	<path fill="none" d="M23.8,65.3h-2.9c-0.1,0-0.3,0.1-0.3,0.3v0.3c0,0.1,0.1,0.3,0.3,0.3h2.9c0.1,0,0.3-0.1,0.3-0.3v-0.3
		C24,65.4,23.9,65.3,23.8,65.3z"/>
	<path fill="none" d="M80.7,76c-0.8,0-1.5,0.7-1.5,1.5s0.7,1.5,1.5,1.5c0.8,0,1.5-0.7,1.5-1.5C82.2,76.6,81.5,76,80.7,76z
		 M80.7,78.2c-0.4,0-0.8-0.3-0.8-0.8c0-0.4,0.3-0.8,0.8-0.8s0.8,0.3,0.8,0.8S81.1,78.2,80.7,78.2z"/>
	<path fill="none" d="M39.6,76c-0.8,0-1.5,0.7-1.5,1.5s0.7,1.5,1.5,1.5s1.5-0.7,1.5-1.5C41.1,76.6,40.4,76,39.6,76z M39.6,78.2
		c-0.4,0-0.8-0.3-0.8-0.8c0-0.4,0.3-0.8,0.8-0.8c0.4,0,0.8,0.3,0.8,0.8S40,78.2,39.6,78.2z"/>
	<path fill="none" d="M19.1,65.2h-3.6c-0.2,0-0.4,0.2-0.5,0.4l-1.5,2.9c-0.1,0.2-0.1,0.4-0.1,0.7v1.7c0,0.3,0.1,0.4,0.3,0.4h0.6
		c0.2,0,0.4,0,0.5-0.2l0.8-1.6c0.1-0.2,0.3-0.3,0.5-0.3l3,0c0.2,0,0.4-0.2,0.4-0.5v-3C19.5,65.4,19.3,65.2,19.1,65.2z"/>
	<path fill="none" d="M34.1,76c-0.8,0-1.5,0.7-1.5,1.5s0.7,1.5,1.5,1.5s1.5-0.7,1.5-1.5C35.6,76.6,35,76,34.1,76z M34.1,78.2
		c-0.4,0-0.8-0.3-0.8-0.8c0-0.4,0.3-0.8,0.8-0.8c0.4,0,0.8,0.3,0.8,0.8C34.9,77.9,34.5,78.2,34.1,78.2z"/>
	<path fill="none" d="M10.1,76c-0.8,0-1.5,0.7-1.5,1.5S9.3,79,10.1,79s1.5-0.7,1.5-1.5C11.6,76.6,11,76,10.1,76z M10.1,78.2
		c-0.4,0-0.8-0.3-0.8-0.8c0-0.4,0.3-0.8,0.8-0.8c0.4,0,0.8,0.3,0.8,0.8S10.5,78.2,10.1,78.2z"/>
	<path fill="none" d="M18.7,70.4h-0.7c-0.1,0-0.2,0.1-0.2,0.2v0.2c0,0.1,0.1,0.2,0.2,0.2h0.7c0.1,0,0.2-0.1,0.2-0.2v-0.2
		C19,70.5,18.9,70.4,18.7,70.4z"/>
	<path fill="none" d="M91.6,76c-0.8,0-1.5,0.7-1.5,1.5s0.7,1.5,1.5,1.5c0.8,0,1.5-0.7,1.5-1.5C93.2,76.6,92.5,76,91.6,76z
		 M91.6,78.2c-0.4,0-0.8-0.3-0.8-0.8c0-0.4,0.3-0.8,0.8-0.8s0.8,0.3,0.8,0.8C92.4,77.9,92.1,78.2,91.6,78.2z"/>
	<circle fill="#231F20" cx="39.6" cy="77.5" r="0.8"/>
	<path fill="#231F20" d="M39.6,75c-1.4,0-2.5,1.1-2.5,2.5s1.1,2.5,2.5,2.5c1.4,0,2.5-1.1,2.5-2.5S41,75,39.6,75z M39.6,79
		c-0.8,0-1.5-0.7-1.5-1.5s0.7-1.5,1.5-1.5s1.5,0.7,1.5,1.5C41.1,78.3,40.4,79,39.6,79z"/>
	<circle fill="#231F20" cx="80.7" cy="77.5" r="0.8"/>
	<path fill="#231F20" d="M80.7,75c-1.4,0-2.5,1.1-2.5,2.5s1.1,2.5,2.5,2.5c1.4,0,2.5-1.1,2.5-2.5S82.1,75,80.7,75z M80.7,79
		c-0.8,0-1.5-0.7-1.5-1.5s0.7-1.5,1.5-1.5c0.8,0,1.5,0.7,1.5,1.5C82.2,78.3,81.5,79,80.7,79z"/>
	<circle fill="#231F20" cx="86.1" cy="77.5" r="0.8"/>
	<path fill="#231F20" d="M86.1,75c-1.4,0-2.5,1.1-2.5,2.5s1.1,2.5,2.5,2.5c1.4,0,2.5-1.1,2.5-2.5S87.5,75,86.1,75z M86.1,79
		c-0.8,0-1.5-0.7-1.5-1.5s0.7-1.5,1.5-1.5c0.8,0,1.5,0.7,1.5,1.5C87.7,78.3,87,79,86.1,79z"/>
	<circle fill="#231F20" cx="91.6" cy="77.5" r="0.8"/>
	<path fill="#231F20" d="M91.6,75c-1.4,0-2.5,1.1-2.5,2.5s1.1,2.5,2.5,2.5c1.4,0,2.5-1.1,2.5-2.5C94.1,76.1,93,75,91.6,75z M91.6,79
		c-0.8,0-1.5-0.7-1.5-1.5s0.7-1.5,1.5-1.5c0.8,0,1.5,0.7,1.5,1.5C93.2,78.3,92.5,79,91.6,79z"/>
	<circle fill="#231F20" cx="10.1" cy="77.5" r="0.8"/>
	<path fill="#231F20" d="M10.1,75c-1.4,0-2.5,1.1-2.5,2.5S8.7,80,10.1,80c1.4,0,2.5-1.1,2.5-2.5S11.5,75,10.1,75z M10.1,79
		c-0.8,0-1.5-0.7-1.5-1.5S9.3,76,10.1,76s1.5,0.7,1.5,1.5C11.6,78.3,11,79,10.1,79z"/>
	<circle fill="#231F20" cx="34.1" cy="77.5" r="0.8"/>
	<path fill="#231F20" d="M34.1,75c-1.4,0-2.5,1.1-2.5,2.5s1.1,2.5,2.5,2.5c1.4,0,2.5-1.1,2.5-2.5C36.6,76.1,35.5,75,34.1,75z
		 M34.1,79c-0.8,0-1.5-0.7-1.5-1.5s0.7-1.5,1.5-1.5s1.5,0.7,1.5,1.5C35.6,78.3,35,79,34.1,79z"/>
	<path fill="#231F20" d="M26.4,74.7h0.7c0.2,0,0.4-0.2,0.4-0.4V60.4c0-0.2,0.1-0.4,0.2-0.6l1.2-1.4c0.1-0.1,0.1-0.2-0.1-0.2H28
		c-0.2,0-0.4,0.1-0.5,0.2l-1.2,1.4C26.1,60,26,60.2,26,60.4v13.8C26,74.5,26.2,74.7,26.4,74.7z"/>
	<path fill="#231F20" d="M31,75.1h-5.6c-0.2,0-0.3-0.2-0.3-0.4l0-10.6c0-0.2-0.1-0.3-0.3-0.3h0.1c0.1,0,0.3-0.1,0.3-0.3v-2.7
		c0-0.1-0.1-0.3-0.3-0.3h-1.7c-0.3,0-0.5,0.1-0.8,0.2l-6.4,2.7c-0.2,0.1-0.3,0.2-0.3,0.2c0,0.1,0.1,0.1,0.4,0.1h-0.2
		c-0.2,0-0.4,0.1-0.5,0.3l-0.8,1.2c0.1,0.1,0.1,0.2,0.1,0.3l-1.2,2.3c-0.3,0.5-0.8,1.3-1.3,1.4l-6,1.1c-0.5,0.1-0.9,0.6-0.9,1.2v2.2
		c0.1,0,0.2,0.1,0.2,0.2v1.2c0,0.1-0.1,0.2-0.2,0.2v0.2c0,0.3-0.3,0.4-0.4,0.6c-0.2,0.3-0.1,1,0,1.2c0.1,0.2,0.1,0.3,0.8,0.3l1.7,0
		c0,0,0,0,0,0c0-1.6,1.3-2.8,2.8-2.8c1.5,0,2.8,1.2,2.8,2.7v1c0,0,0,0.1,0.1,0.1s0.1,0,0.1-0.1l0.3-0.9c0-0.1,0.2-0.2,0.3-0.2H31
		c0.2,0,0.3-0.1,0.3-0.3c0,0,0-1.1,0-1.5C31.3,75.2,31.2,75.1,31,75.1z M19,70.8c0,0.1-0.1,0.2-0.2,0.2h-0.7c-0.1,0-0.2-0.1-0.2-0.2
		v-0.2c0-0.1,0.1-0.2,0.2-0.2h0.7c0.1,0,0.2,0.1,0.2,0.2V70.8z M19.5,68.7c0,0.3-0.2,0.5-0.3,0.5l-3,0c-0.2,0-0.4,0.1-0.5,0.3
		l-0.8,1.6c-0.1,0.2-0.3,0.2-0.5,0.2h-0.6c-0.2,0-0.3-0.2-0.3-0.4v-1.7c0-0.3,0-0.5,0.1-0.7l1.5-2.9c0.1-0.2,0.3-0.4,0.5-0.4h3.6
		c0.2,0,0.3,0.2,0.3,0.5L19.5,68.7L19.5,68.7z M24,69c0,0.1-0.1,0.3-0.3,0.3h-2.9c-0.1,0-0.3-0.1-0.3-0.3v-0.3
		c0-0.1,0.1-0.3,0.3-0.3h2.9c0.1,0,0.3,0.1,0.3,0.3V69z M24,67.5c0,0.1-0.1,0.3-0.3,0.3h-2.9c-0.1,0-0.3-0.1-0.3-0.3v-0.3
		c0-0.1,0.1-0.3,0.3-0.3h2.9c0.1,0,0.3,0.1,0.3,0.3V67.5z M24,65.9c0,0.1-0.1,0.3-0.3,0.3h-2.9c-0.1,0-0.3-0.1-0.3-0.3v-0.3
		c0-0.1,0.1-0.3,0.3-0.3h2.9c0.1,0,0.3,0.1,0.3,0.3V65.9z"/>
	<path fill="#231F20" d="M94.7,60.5H30.9c-0.6,0-1,0.5-1,1v11.7c0,0.6,0.5,1,1,1h11.4c0.2,0,0.4,0.1,0.5,0.2l2.5,2.8
		c0.1,0.1,0.4,0.2,0.5,0.2h28.5c0.2,0,0.4-0.1,0.5-0.2l2.5-2.8c0.1-0.1,0.4-0.2,0.5-0.2h16.8c0.6,0,1-0.5,1-1V61.6
		C95.7,61,95.3,60.5,94.7,60.5z M73.4,76.7H47c-0.2,0-0.4-0.1-0.4-0.3s0.2-0.3,0.4-0.3h26.4c0.2,0,0.4,0.1,0.4,0.3
		C73.9,76.5,73.7,76.7,73.4,76.7z M73.4,75.6H47c-0.2,0-0.4-0.1-0.4-0.3s0.2-0.3,0.4-0.3h26.4c0.2,0,0.4,0.1,0.4,0.3
		S73.7,75.6,73.4,75.6z"/>
</g>
</svg>
