<?xml version="1.0" encoding="utf-8"?>
<!-- Generator: Adobe Illustrator 17.1.0, SVG Export Plug-In . SVG Version: 6.00 Build 0)  -->
<!DOCTYPE svg PUBLIC "-//W3C//DTD SVG 1.1//EN" "http://www.w3.org/Graphics/SVG/1.1/DTD/svg11.dtd">
<svg version="1.1" id="Layer_1" xmlns="http://www.w3.org/2000/svg" xmlns:xlink="http://www.w3.org/1999/xlink" x="0px" y="0px"
	 viewBox="0 0 100 100" enable-background="new 0 0 100 100" xml:space="preserve">
<g id="Your_Icon">
	<path d="M80.4,73.6c-3.5,0-6.3,2.8-6.3,6.3c0,3.5,2.8,6.3,6.3,6.3c3.5,0,6.3-2.8,6.3-6.3C86.7,76.4,83.9,73.6,80.4,73.6z M80.4,83
		c-1.7,0-3.1-1.4-3.1-3.1c0-1.7,1.4-3.1,3.1-3.1c1.7,0,3.1,1.4,3.1,3.1C83.5,81.6,82.1,83,80.4,83z"/>
	<path d="M26.1,73.6c-3.5,0-6.3,2.8-6.3,6.3c0,3.5,2.8,6.3,6.3,6.3c3.5,0,6.3-2.8,6.3-6.3C32.4,76.4,29.6,73.6,26.1,73.6z M26.1,83
		c-1.7,0-3.1-1.4-3.1-3.1c0-1.7,1.4-3.1,3.1-3.1c1.7,0,3.1,1.4,3.1,3.1C29.3,81.6,27.9,83,26.1,83z"/>
	<rect x="3.2" y="27.7" width="56.4" height="43.8"/>
	<path d="M3.2,73.6c-1.2,0-2.1,0.9-2.1,2.1s0.9,2.1,2.1,2.1H18c0.4-1.6,1.3-3.1,2.6-4.2H3.2z"/>
	<path d="M98.5,59.6L98.5,59.6C98.5,59.6,98.5,59.6,98.5,59.6c-0.2-0.2-0.5-0.4-0.7-0.4c-1.2-0.7-3.4-2.1-4.2-2.8
		c-0.1-0.1-0.3-0.4-0.4-0.5C91.1,51.7,86.7,34,86.7,34c0-1.2-0.9-2.1-2.1-2.1l-18.8,0v0v0h-4.2v41.8h-30c1.2,1.1,2.1,2.5,2.6,4.2
		h38.1l0,0c0.9-3.6,4.2-6.3,8.1-6.3c3.9,0,7.1,2.7,8.1,6.3h8.6c1.2,0,2.1-0.9,2.1-2.1V61.1C99.2,60.5,98.9,60,98.5,59.6z M82.5,46.5
		c0,1.2-0.9,2.1-2.1,2.1h-8.4c-1.1,0-2.1-0.9-2.1-2.1c0,0,0,0,0,0c0-2.5,0-6.6,0-8.4c0,0,0,0,0,0c0-1.2,0.9-2.1,2.1-2.1
		c1.4,0,5.7,0,8.4,0c1.2,0,2.1,0.9,2.1,2.1V46.5z"/>
</g>
</svg>
