<?xml version="1.0" encoding="utf-8"?>
<!-- Generator: Adobe Illustrator 17.1.0, SVG Export Plug-In . SVG Version: 6.00 Build 0)  -->
<!DOCTYPE svg PUBLIC "-//W3C//DTD SVG 1.1//EN" "http://www.w3.org/Graphics/SVG/1.1/DTD/svg11.dtd">
<svg version="1.1" id="Layer_1" xmlns="http://www.w3.org/2000/svg" xmlns:xlink="http://www.w3.org/1999/xlink" x="0px" y="0px"
	 viewBox="0 0 100 100" enable-background="new 0 0 100 100" xml:space="preserve">
<g>
	<path fill="#231F20" d="M69.3,29.2c0,3.7,3,6.7,6.7,6.8c3.7,0,6.7-3,6.8-6.8c0-3.7-3-6.7-6.8-6.8C72.3,22.5,69.3,25.5,69.3,29.2z
		 M24.7,56.1l-2.6-1.9v20.1l2.6-1.9c1.2-0.7,2.1-2.4,2.1-3.7v-8.8C26.8,58.4,25.9,56.7,24.7,56.1z M1.1,44.6v39.2
		c0,1.4,1,1.9,2.1,1.2l16.6-9.6V53L3.2,43.4C2.1,42.7,1.1,43.2,1.1,44.6z M33.1,29.5c0,3.7,3,6.7,6.8,6.7c3.7,0,6.7-3,6.8-6.7
		c0-3.7-3-6.7-6.8-6.8C36.1,22.7,33.1,25.7,33.1,29.5z M31.4,45c-1.3,0.8-2.2,2.3-2.2,4v30.5c0,2.6,2.1,4.7,4.7,4.7h48.4
		c2.6,0,4.7-2.1,4.7-4.7V48.9c0-1.7-0.9-3.2-2.2-4c5.2-3.1,8.6-8.7,8.6-15.2c0-9.7-7.9-17.6-17.6-17.6c-9.7,0-17.6,7.9-17.6,17.6
		c0,6,3,11.3,7.5,14.4H50.5C55.1,41,58,35.8,58,29.8c0-9.7-7.9-17.6-17.7-17.6c-9.7,0-17.6,7.9-17.6,17.6
		C22.7,36.2,26.2,41.9,31.4,45z M65.8,29.2C65.8,23.6,70.4,19,76,19c5.6,0,10.2,4.6,10.2,10.2c0,5.6-4.6,10.2-10.2,10.2
		C70.4,39.4,65.8,34.8,65.8,29.2z M36.8,56.2c0-1.1,0.9-1.9,1.9-1.9h18.6c1.1,0,1.9,0.9,1.9,1.9v8.6c0,1.1-0.9,1.9-1.9,1.9H38.8
		c-1.1,0-1.9-0.9-1.9-1.9C36.8,64.8,36.8,56.2,36.8,56.2z M29.7,29.5c0-5.6,4.6-10.2,10.2-10.2c5.6,0,10.2,4.6,10.2,10.2
		c0,5.6-4.6,10.2-10.2,10.2C34.2,39.6,29.7,35.1,29.7,29.5z"/>
	<g>
		<rect x="85.6" y="55.5" fill="#231F20" width="4.1" height="10.7"/>
		<polygon fill="#231F20" points="99,73.7 90.8,66.2 90.8,55.5 99,49.5 		"/>
	</g>
	<path fill="#231F20" d="M66,99"/>
	<path fill="#231F20" d="M66,94.3"/>
</g>
</svg>
