<?xml version="1.0" encoding="utf-8"?>
<!-- Generator: Adobe Illustrator 17.1.0, SVG Export Plug-In . SVG Version: 6.00 Build 0)  -->
<!DOCTYPE svg PUBLIC "-//W3C//DTD SVG 1.1//EN" "http://www.w3.org/Graphics/SVG/1.1/DTD/svg11.dtd">
<svg version="1.1" id="Layer_1" xmlns="http://www.w3.org/2000/svg" xmlns:xlink="http://www.w3.org/1999/xlink" x="0px" y="0px"
	 viewBox="0 0 100 100" enable-background="new 0 0 100 100" xml:space="preserve">
<g>
	<path d="M49.4,50.2c-1-0.7-3.2-2.1-3.3-3.2c0-1.1,0.2-1.8,2-3.2c1.8-1.6,2.9-3.5,2.8-5.9c-0.1-2.5-1.4-4.7-3.3-5.8
		l2.8-0.1l2.3-2.6L42,29.9c-5.5,0.2-9.7,4.5-9.5,8.9c0.2,4.4,3.4,7.8,8.4,7.5c0.4,0,0.7,0,1-0.1c-0.3,0.6-0.5,1.4-0.5,2.1
		c0,1.2,0.8,1.9,1.7,2.7c-0.6,0-1.3,0-2,0.1c-6.2,0.3-10.3,4.8-10,8.9c0.2,4,5.6,6.3,11.7,5.9c7-0.4,11.1-4.6,10.9-8.6
		c-0.2-3.3-1-4.8-4.6-7.3V50.2z M37.3,37.9c-0.5-3.6,1.5-6.6,4.3-6.5s5.3,3.2,5.8,7c0.5,3.6-1.2,6.2-4.1,6.1
		C40.5,44.3,37.8,41.7,37.3,37.9L37.3,37.9z M42.3,63.9c-4.3,0-7.4-2.7-7.4-5.9c0-3.1,3.6-5.9,7.9-5.8c0.9,0,1.9,0.2,2.7,0.5
		c2.3,1.6,4.2,2.6,4.7,4.4c0.1,0.3,0.1,0.7,0.1,1.1C50.3,61.3,48.2,63.9,42.3,63.9L42.3,63.9z M61.8,35.3v-4.9h-2.5v4.9h-4.9v2.4
		h4.9v4.9h2.5v-4.9h4.9v-2.4"/>
</g>
</svg>
