<!DOCTYPE svg PUBLIC "-//W3C//DTD SVG 1.1//EN" "http://www.w3.org/Graphics/SVG/1.1/DTD/svg11.dtd"><svg xmlns="http://www.w3.org/2000/svg" xmlns:xlink="http://www.w3.org/1999/xlink"><symbol viewBox="0 0 100 100" id="facebook"><path d="M55.2 50.3h-5.1v18.2h-7.5V50.3H39v-6.4h3.6v-4.2c0-3 1.4-7.6 7.6-7.6h5.6v6.2h-4c-.7 0-1.6.3-1.6 1.7v3.8h5.7l-.7 6.5z"/></symbol><symbol viewBox="0 0 100 100" id="google-plus"><path d="M49.4 50.2c-1-.7-3.2-2.1-3.3-3.2 0-1.1.2-1.8 2-3.2 1.8-1.6 2.9-3.5 2.8-5.9-.1-2.5-1.4-4.7-3.3-5.8l2.8-.1 2.3-2.6-10.7.5c-5.5.2-9.7 4.5-9.5 8.9.2 4.4 3.4 7.8 8.4 7.5.4 0 .7 0 1-.1-.3.6-.5 1.4-.5 2.1 0 1.2.8 1.9 1.7 2.7-.6 0-1.3 0-2 .1-6.2.3-10.3 4.8-10 8.9.2 4 5.6 6.3 11.7 5.9 7-.4 11.1-4.6 10.9-8.6-.2-3.3-1-4.8-4.6-7.3v.2zM37.3 37.9c-.5-3.6 1.5-6.6 4.3-6.5s5.3 3.2 5.8 7c.5 3.6-1.2 6.2-4.1 6.1-2.8-.2-5.5-2.8-6-6.6zm5 26c-4.3 0-7.4-2.7-7.4-5.9 0-3.1 3.6-5.9 7.9-5.8.9 0 1.9.2 2.7.5 2.3 1.6 4.2 2.6 4.7 4.4.1.3.1.7.1 1.1 0 3.1-2.1 5.7-8 5.7zm19.5-28.6v-4.9h-2.5v4.9h-4.9v2.4h4.9v4.9h2.5v-4.9h4.9v-2.4"/></symbol></svg>